<svg width="238" height="60" viewBox="0 0 238 60" fill="none" xmlns="http://www.w3.org/2000/svg">
<path d="M70.2539 40.382V20.9529H74.0352V40.382H70.2539Z" fill="#414141"/>
<path d="M88.1204 40.3818H84.5282V33.203C84.5282 31.6849 84.4504 30.7007 84.3002 30.2558C84.1445 29.811 83.8999 29.4606 83.5551 29.216C83.2103 28.9713 82.7933 28.8434 82.3095 28.8434C81.6867 28.8434 81.1306 29.0213 80.6357 29.3716C80.1408 29.7275 79.8016 30.1946 79.6181 30.7785C79.4346 31.3624 79.3456 32.4411 79.3456 34.0148V40.3874H75.7534V26.3077H79.0898V28.3763C80.2743 26.7859 81.7646 25.9907 83.5607 25.9907C84.3503 25.9907 85.0787 26.1409 85.7349 26.4356C86.3911 26.7303 86.8859 27.1084 87.2252 27.57C87.5588 28.0315 87.7979 28.5487 87.9258 29.1325C88.0593 29.7164 88.126 30.5505 88.126 31.6349V40.3818H88.1204Z" fill="#414141"/>
<path d="M102.378 40.382H99.0417V38.3134C98.4856 39.1197 97.835 39.7147 97.0788 40.1095C96.3225 40.5043 95.5663 40.6989 94.7989 40.6989C93.2419 40.6989 91.9073 40.0483 90.7952 38.7416C89.683 37.4404 89.127 35.622 89.127 33.2865C89.127 30.901 89.6664 29.0882 90.7507 27.8482C91.8295 26.6081 93.1974 25.9853 94.8545 25.9853C96.3726 25.9853 97.6849 26.6415 98.7915 27.9483V20.9529H102.384V40.382H102.378ZM92.797 33.0418C92.797 34.5432 92.9972 35.6332 93.3976 36.3004C93.9759 37.2736 94.7878 37.7573 95.8276 37.7573C96.6562 37.7573 97.3568 37.3903 97.9351 36.6619C98.5134 35.9334 98.8026 34.8435 98.8026 33.3977C98.8026 31.7796 98.519 30.6174 97.9574 29.9056C97.3957 29.1939 96.6728 28.838 95.7998 28.838C94.949 28.838 94.2373 29.1883 93.6589 29.8945C93.0806 30.5951 92.797 31.6461 92.797 33.0418Z" fill="#414141"/>
<path d="M113.016 40.3818V38.2743C112.521 39.025 111.87 39.62 111.069 40.0481C110.263 40.4819 109.412 40.6987 108.523 40.6987C107.611 40.6987 106.793 40.493 106.07 40.0759C105.348 39.6589 104.825 39.0805 104.497 38.3243C104.174 37.5736 104.013 36.5338 104.013 35.2103V26.3076H107.605V32.7747C107.605 34.7543 107.672 35.9665 107.805 36.4114C107.939 36.8563 108.178 37.2122 108.528 37.4735C108.879 37.7349 109.318 37.8628 109.857 37.8628C110.469 37.8628 111.019 37.6904 111.503 37.3401C111.987 36.9897 112.321 36.556 112.499 36.0388C112.677 35.5217 112.765 34.2539 112.765 32.2409V26.3076H116.352V40.3818H113.016Z" fill="#414141"/>
<path d="M116.969 36.3671L120.573 35.7999C120.728 36.5228 121.034 37.0733 121.507 37.4514C121.98 37.8295 122.63 38.013 123.475 38.013C124.404 38.013 125.105 37.8351 125.572 37.4848C125.889 37.2401 126.044 36.9064 126.044 36.4894C126.044 36.2058 125.961 35.9722 125.789 35.7887C125.611 35.6108 125.21 35.4495 124.588 35.2994C121.69 34.6377 119.855 34.0316 119.082 33.4866C118.009 32.7248 117.47 31.6683 117.47 30.317C117.47 29.0992 117.931 28.0705 118.86 27.2419C119.789 26.4134 121.229 25.9963 123.181 25.9963C125.038 25.9963 126.417 26.3077 127.318 26.9361C128.219 27.5645 128.841 28.4931 129.181 29.7164L125.794 30.367C125.65 29.8221 125.377 29.3995 124.971 29.1104C124.565 28.8212 123.987 28.671 123.242 28.671C122.297 28.671 121.618 28.81 121.212 29.0825C120.94 29.2771 120.801 29.5274 120.801 29.8388C120.801 30.1057 120.917 30.3281 121.157 30.5172C121.479 30.7674 122.597 31.1122 124.51 31.5626C126.423 32.013 127.757 32.5635 128.513 33.2197C129.264 33.8814 129.637 34.8045 129.637 35.9889C129.637 37.279 129.12 38.3856 128.08 39.3142C127.04 40.2429 125.505 40.7044 123.47 40.7044C121.624 40.7044 120.156 40.3152 119.082 39.5367C118.009 38.7582 117.303 37.7016 116.969 36.3671Z" fill="#414141"/>
<path d="M137.177 26.3075V29.2769H134.725V34.9489C134.725 36.0999 134.747 36.7672 134.797 36.9563C134.842 37.1453 134.953 37.301 135.114 37.4289C135.281 37.5512 135.481 37.6124 135.72 37.6124C136.054 37.6124 136.532 37.4956 137.166 37.2565L137.472 40.1481C136.638 40.5207 135.692 40.7042 134.636 40.7042C133.991 40.7042 133.407 40.593 132.884 40.365C132.361 40.137 131.983 39.8478 131.739 39.4919C131.494 39.1361 131.327 38.6523 131.233 38.0406C131.155 37.6069 131.116 36.7338 131.116 35.4159V29.2825H129.47V26.3131H131.116V23.5161L134.719 21.3418V26.3131H137.177V26.3075Z" fill="#414141"/>
<path d="M141.275 40.3818H137.683V26.3077H141.019V28.3096C141.592 27.3642 142.104 26.7414 142.56 26.4411C143.016 26.1409 143.533 25.9907 144.111 25.9907C144.929 25.9907 145.718 26.2243 146.474 26.6914L145.362 29.9388C144.756 29.5329 144.195 29.3271 143.677 29.3271C143.177 29.3271 142.749 29.4717 142.398 29.7553C142.048 30.0389 141.776 30.5616 141.575 31.3123C141.375 32.063 141.275 33.6367 141.275 36.0278V40.3818Z" fill="#414141"/>
<path d="M146.191 24.4005V20.9529H149.783V24.4005H146.191ZM146.191 40.382V26.3078H149.783V40.382H146.191Z" fill="#414141"/>
<path d="M154.31 30.6006L151.051 29.9889C151.418 28.6265 152.046 27.62 152.942 26.9694C153.837 26.3132 155.166 25.9907 156.929 25.9907C158.53 25.9907 159.72 26.1853 160.504 26.5802C161.288 26.975 161.839 27.4699 162.161 28.076C162.484 28.6821 162.639 29.7942 162.639 31.4068L162.601 35.7553C162.601 36.9898 162.656 37.9018 162.773 38.4912C162.89 39.0806 163.101 39.709 163.418 40.3818H159.865C159.77 40.1372 159.653 39.7702 159.52 39.2808C159.459 39.0584 159.42 38.9138 159.392 38.8415C158.78 39.4588 158.124 39.9259 157.423 40.2317C156.723 40.5375 155.978 40.6932 155.188 40.6932C153.792 40.6932 152.691 40.2984 151.885 39.5144C151.079 38.7303 150.678 37.7349 150.678 36.5338C150.678 35.7386 150.862 35.0324 151.229 34.4096C151.596 33.7868 152.107 33.3086 152.769 32.9805C153.431 32.6469 154.382 32.3577 155.627 32.1131C157.307 31.785 158.469 31.4791 159.114 31.2011V30.8285C159.114 30.1112 158.942 29.6052 158.602 29.2993C158.263 28.9935 157.618 28.8434 156.673 28.8434C156.033 28.8434 155.538 28.9713 155.177 29.2326C154.821 29.494 154.532 29.95 154.31 30.6006ZM159.114 33.6256C158.652 33.7869 157.924 33.9759 156.929 34.1928C155.933 34.4152 155.283 34.6321 154.977 34.8434C154.51 35.1882 154.276 35.6274 154.276 36.1557C154.276 36.6784 154.465 37.1288 154.838 37.507C155.21 37.8851 155.689 38.0742 156.267 38.0742C156.912 38.0742 157.529 37.8517 158.119 37.4124C158.552 37.0788 158.836 36.6673 158.975 36.1779C159.069 35.861 159.114 35.2549 159.114 34.3596V33.6256Z" fill="#414141"/>
<path d="M164.347 40.382V20.9529H167.939V40.382H164.347Z" fill="#414141"/>
<path d="M169.852 40.382V20.9529H173.583C173.583 20.9529 178.721 36.951 178.91 37.585C179.121 36.8788 184.393 20.9529 184.393 20.9529H187.729V40.382H185.338V24.1225L179.894 40.382H177.659L172.243 23.8445V40.382H169.852Z" fill="#D31F2E"/>
<path d="M198.45 38.6468C197.6 39.3975 196.777 39.9258 195.993 40.2372C195.203 40.5486 194.358 40.6987 193.457 40.6987C191.967 40.6987 190.821 40.3206 190.02 39.5644C189.22 38.8081 188.819 37.8461 188.819 36.6672C188.819 35.9777 188.969 35.3494 189.275 34.7766C189.581 34.2039 189.976 33.7479 190.465 33.4031C190.955 33.0583 191.505 32.797 192.122 32.6191C192.573 32.4967 193.257 32.3744 194.169 32.2632C196.026 32.0352 197.394 31.7572 198.272 31.4402C198.278 31.1121 198.284 30.9063 198.284 30.8174C198.284 29.8442 198.067 29.1603 197.633 28.7655C197.044 28.2261 196.17 27.9592 195.014 27.9592C193.93 27.9592 193.134 28.1538 192.617 28.5486C192.1 28.9434 191.722 29.6385 191.472 30.6339L189.225 30.3169C189.431 29.316 189.765 28.5097 190.237 27.898C190.704 27.2863 191.383 26.8137 192.267 26.48C193.151 26.1464 194.18 25.9851 195.348 25.9851C196.504 25.9851 197.449 26.1241 198.172 26.4077C198.895 26.6913 199.429 27.0472 199.768 27.4754C200.107 27.9036 200.347 28.443 200.486 29.0991C200.563 29.5051 200.602 30.2391 200.602 31.3012V34.4819C200.602 36.7006 200.652 38.1019 200.747 38.6913C200.847 39.2808 201.036 39.8424 201.331 40.3818H198.929C198.673 39.8869 198.517 39.3086 198.45 38.6468ZM198.261 33.3197C197.427 33.6756 196.176 33.9759 194.508 34.2205C193.563 34.3596 192.895 34.5208 192.5 34.6988C192.106 34.8767 191.805 35.1325 191.594 35.4717C191.383 35.8109 191.277 36.189 191.277 36.6061C191.277 37.24 191.511 37.7738 191.972 38.1964C192.434 38.619 193.118 38.8304 194.007 38.8304C194.892 38.8304 195.681 38.6302 196.371 38.2298C197.06 37.8294 197.566 37.2789 197.889 36.5783C198.133 36.0389 198.261 35.2437 198.261 34.1927V33.3197Z" fill="#D31F2E"/>
<path d="M207.336 38.252L207.67 40.3595C207.025 40.4985 206.441 40.5708 205.935 40.5708C205.101 40.5708 204.45 40.4318 203.994 40.1593C203.539 39.8868 203.21 39.5254 203.021 39.0805C202.832 38.6357 202.743 37.6959 202.743 36.2668V28.1704H201.058V26.3131H202.743V22.8266L205.029 21.3975V26.3131H207.342V28.1704H205.029V36.4003C205.029 37.0787 205.068 37.518 205.151 37.7126C205.229 37.9072 205.362 38.0629 205.546 38.1741C205.729 38.2909 205.991 38.3465 206.33 38.3465C206.586 38.3409 206.919 38.3132 207.336 38.252Z" fill="#D31F2E"/>
<path d="M207.731 40.3818V26.3077H209.8V28.443C210.328 27.4421 210.817 26.7859 211.262 26.469C211.707 26.152 212.202 25.9907 212.736 25.9907C213.509 25.9907 214.298 26.2465 215.099 26.7581L214.31 28.9713C213.748 28.6265 213.186 28.4541 212.625 28.4541C212.124 28.4541 211.668 28.6098 211.268 28.9268C210.867 29.2438 210.584 29.6775 210.411 30.2335C210.156 31.0843 210.028 32.0074 210.028 33.0139V40.3818H207.731Z" fill="#D31F2E"/>
<path d="M214.649 23.6994V20.958H216.951V23.6994H214.649ZM214.649 40.3815V26.3074H216.951V40.3815H214.649Z" fill="#D31F2E"/>
<path d="M217.084 40.3818L222.044 33.0639L217.457 26.3076H220.332L222.417 29.6051C222.806 30.2335 223.123 30.7562 223.362 31.1844C223.735 30.6005 224.08 30.0834 224.397 29.6329L226.682 26.3076H229.429L224.741 32.936L229.79 40.3818H226.966L224.18 36.0111L223.44 34.8322L219.876 40.3873H217.084V40.3818Z" fill="#D31F2E"/>
<path d="M231.257 25V21.6767H230V21H233.366V21.6767H232.112V25H231.257Z" fill="#D31F2E"/>
<path d="M233.909 25V21H235.189L235.957 23.7285L236.717 21H238V25H237.205V21.8513L236.365 25H235.541L234.704 21.8513V25H233.909Z" fill="#D31F2E"/>
<path d="M30 0C13.4569 0 0 13.4569 0 30C0 46.5431 13.4569 60 30 60C46.5431 60 60 46.5431 60 30C59.9944 13.4569 46.5375 0 30 0ZM48.6228 45.4198C48.2502 45.8702 47.8554 46.2984 47.455 46.721C44.1297 50.1909 39.7868 52.671 34.9101 53.6775C34.6209 53.7387 34.3318 53.7887 34.0426 53.8387C33.6867 55.7461 32.0074 57.1974 30 57.1974C27.987 57.1974 26.3132 55.7461 25.9574 53.8387C25.379 53.7386 24.8007 53.6219 24.2391 53.4828C19.7071 52.3707 15.6756 49.9796 12.5449 46.7155C12.5449 46.7155 12.545 46.7155 12.5505 46.7155C12.1446 46.2929 11.7553 45.8647 11.3827 45.4143C10.6042 45.6923 9.75904 45.7312 8.94162 45.5088C7.87953 45.2252 6.98979 44.5412 6.44484 43.5904C5.89433 42.6395 5.74975 41.5273 6.03335 40.4652C6.25022 39.6534 6.70064 38.9416 7.329 38.4078C7.12326 37.8628 6.94532 37.3012 6.7785 36.7396C6.15014 34.5931 5.81094 32.3299 5.81094 29.9833C5.81094 27.3308 6.24465 24.7841 7.03984 22.393C7.12881 22.1149 7.22891 21.8369 7.329 21.5589C6.70064 21.025 6.25022 20.3133 6.03335 19.5014C5.74975 18.4393 5.89433 17.3327 6.44484 16.3763C6.99535 15.4254 7.87953 14.7414 8.94162 14.4578C9.29751 14.3633 9.65339 14.3133 10.0148 14.3133C10.4819 14.3133 10.9379 14.4022 11.3772 14.5579C11.7553 14.1075 12.1501 13.6682 12.5561 13.2456C15.8814 9.78128 20.2243 7.3012 25.0955 6.28915C25.3846 6.22799 25.6738 6.17795 25.9629 6.12791C26.3188 4.22058 27.9926 2.76924 30.0055 2.76924C32.0185 2.76924 33.6923 4.22058 34.0482 6.12791C34.6265 6.228 35.2048 6.34476 35.7664 6.48378C40.2984 7.59592 44.3299 9.98703 47.455 13.2456C47.455 13.2456 47.4551 13.2456 47.4495 13.2456C47.8554 13.6682 48.2502 14.1019 48.6284 14.5579C49.0677 14.4022 49.5292 14.3133 49.9907 14.3133C50.3466 14.3133 50.7081 14.3577 51.0639 14.4578C52.126 14.7414 53.0158 15.4254 53.5607 16.3763C54.5672 18.1168 54.1501 20.291 52.6765 21.5533C52.8823 22.0982 53.0602 22.6599 53.227 23.2271C53.8554 25.3735 54.1946 27.6367 54.1946 29.9833C54.1946 32.6358 53.7609 35.1826 52.9657 37.5737C52.8767 37.8517 52.7766 38.1297 52.6765 38.4078C53.3049 38.9416 53.7553 39.6534 53.9722 40.4652C54.2558 41.5273 54.1112 42.6339 53.5607 43.5904C53.0102 44.5412 52.126 45.2252 51.0639 45.5088C50.2465 45.7368 49.4013 45.6979 48.6228 45.4198ZM55.5848 40.0482C55.3846 39.3031 55.0398 38.6191 54.5838 38.0297C55.4124 35.4995 55.8628 32.8026 55.8628 30C55.8628 27.1974 55.4124 24.5005 54.5838 21.9703C55.0398 21.3753 55.3846 20.6969 55.5848 19.9518C55.7349 19.4013 55.7961 18.8341 55.7794 18.278C57.4087 21.8536 58.3262 25.8184 58.3262 30C58.3262 34.1816 57.4087 38.1464 55.7794 41.722C55.7961 41.1603 55.7293 40.5987 55.5848 40.0482ZM53.0324 13.5347C51.898 12.8397 50.5524 12.5505 49.2234 12.7285C45.62 8.72475 40.7933 5.8443 35.3327 4.69323C34.8156 3.44764 33.8869 2.42447 32.7081 1.79611C41.0714 2.59685 48.3837 7.05097 53.0324 13.5347ZM27.2919 1.80168C26.1131 2.43004 25.1844 3.4532 24.6673 4.69323C19.2011 5.8443 14.3688 8.71919 10.7655 12.7285C9.44207 12.5505 8.09639 12.8397 6.96201 13.5347C11.6108 7.05097 18.9231 2.59686 27.2919 1.80168ZM4.21502 18.278C4.19834 18.8341 4.26506 19.3957 4.40963 19.9518C4.60982 20.6969 4.95458 21.3809 5.41055 21.9703C4.58201 24.5005 4.1316 27.1974 4.1316 30C4.1316 32.8026 4.58201 35.4995 5.41055 38.0297C4.95458 38.6247 4.60982 39.3031 4.40963 40.0482C4.25949 40.5987 4.19834 41.1659 4.21502 41.722C2.58574 38.1464 1.66821 34.1816 1.66821 30C1.66821 25.8184 2.58574 21.8536 4.21502 18.278ZM6.95645 46.4486C7.87396 47.0158 8.93049 47.3271 10.0093 47.3271C10.2651 47.3271 10.5209 47.3049 10.7766 47.266C14.38 51.2697 19.2067 54.1446 24.6673 55.2956C25.1844 56.5412 26.1131 57.5644 27.2919 58.1928C18.9175 57.3976 11.6052 52.9379 6.95645 46.4486ZM32.7081 58.1928C33.8869 57.5644 34.8156 56.5412 35.3327 55.3012C40.7933 54.1501 45.6256 51.2752 49.2289 47.266C49.4791 47.2993 49.7349 47.3271 49.9852 47.3271C51.0639 47.3271 52.1205 47.0158 53.038 46.4486C48.3948 52.9379 41.0769 57.3976 32.7081 58.1928Z" fill="#D31F2E"/>
<path d="M52.3485 42.9007C53.0992 41.6051 52.6487 39.9424 51.3531 39.1917C50.3132 38.5912 49.0398 38.7691 48.189 39.5365L35.9166 32.4522C36.2724 31.6403 36.4782 30.7506 36.4782 29.8108C36.4782 28.9878 36.3169 28.2038 36.0389 27.4754L48.1835 20.4633C48.6839 20.9137 49.3401 21.1639 50.0018 21.1639C50.4634 21.1639 50.9305 21.0472 51.3531 20.8025C51.9814 20.4411 52.4319 19.8516 52.6154 19.1565C52.8044 18.4559 52.7043 17.7274 52.3429 17.0991C51.5922 15.8034 49.9295 15.3586 48.6339 16.1037C47.5885 16.7043 47.1103 17.8998 47.3494 19.0175L35.2437 26.0073C34.2206 24.5782 32.6413 23.5773 30.8285 23.3215V9.48091C31.9184 9.12503 32.7081 8.11298 32.7081 6.91187C32.7081 5.41604 31.4903 4.19824 29.9944 4.19824C28.4986 4.19824 27.2808 5.41604 27.2808 6.91187C27.2808 8.11298 28.076 9.12503 29.1603 9.48091V23.2937C27.2975 23.505 25.6738 24.5004 24.6172 25.935L12.6395 19.0175C12.8786 17.8998 12.3948 16.7043 11.3549 16.1037C10.0593 15.3586 8.39666 15.8034 7.64596 17.0991C7.28452 17.7274 7.18443 18.4559 7.3735 19.1565C7.56256 19.8572 8.01295 20.4411 8.63575 20.8025C9.06393 21.0472 9.52546 21.1639 9.987 21.1639C10.6543 21.1639 11.3049 20.9137 11.8054 20.4633L23.7998 27.3864C23.4995 28.1371 23.3327 28.9545 23.3327 29.8108C23.3327 30.7839 23.5496 31.7015 23.9333 32.5356L11.8109 39.5365C10.9601 38.7747 9.68674 38.5912 8.64688 39.1917C7.35124 39.9424 6.9064 41.6051 7.65153 42.9007C8.15199 43.7682 9.0695 44.2576 10.0093 44.2576C10.4708 44.2576 10.9379 44.1408 11.3605 43.8961C12.4059 43.2955 12.8841 42.1 12.645 40.9823L24.8174 33.9536C25.874 35.2492 27.4143 36.1334 29.1659 36.3335V50.5189C28.076 50.8748 27.2864 51.8868 27.2864 53.088C27.2864 54.5838 28.5042 55.8016 30 55.8016C31.4958 55.8016 32.7136 54.5838 32.7136 53.088C32.7136 51.8868 31.9184 50.8748 30.8341 50.5189V36.3058C32.5412 36.0666 34.0315 35.1713 35.0547 33.8813L47.3549 40.9823C47.1158 42.1 47.5996 43.2955 48.6395 43.8961C49.0676 44.1408 49.5292 44.2576 49.9907 44.2576C50.9305 44.2576 51.8424 43.7682 52.3485 42.9007ZM49.1121 16.9211C49.3902 16.7599 49.696 16.682 49.9963 16.682C50.6079 16.682 51.2029 16.999 51.531 17.5662C51.7646 17.9777 51.8313 18.4503 51.709 18.9063C51.5866 19.3623 51.2919 19.746 50.886 19.9795C50.0408 20.4688 48.9564 20.1741 48.4671 19.3345C47.9777 18.4893 48.2669 17.4049 49.1121 16.9211ZM9.114 19.9851C8.70251 19.7515 8.41333 19.3678 8.29099 18.9119C8.16866 18.4559 8.22983 17.9777 8.46894 17.5717C8.79702 17.0046 9.39202 16.6876 10.0037 16.6876C10.304 16.6876 10.6098 16.7654 10.8879 16.9267C11.7331 17.416 12.0222 18.5004 11.5329 19.3456C11.0435 20.1797 9.95923 20.4689 9.114 19.9851ZM10.8879 43.0731C10.0426 43.5625 8.95828 43.2677 8.46894 42.4281C7.9796 41.5828 8.27433 40.4985 9.114 40.0092C9.39203 39.8479 9.69785 39.7701 9.99813 39.7701C10.6098 39.7701 11.2048 40.087 11.5329 40.6542C12.0222 41.505 11.7275 42.5893 10.8879 43.0731ZM24.3058 33.2251C24.3225 33.2529 24.3392 33.2807 24.3559 33.3085C24.3392 33.2807 24.3225 33.2529 24.3058 33.2251ZM28.2317 6.9063C28.2317 5.93318 29.0269 5.138 30 5.138C30.9731 5.138 31.7683 5.93318 31.7683 6.9063C31.7683 7.87943 30.9731 8.6746 30 8.6746C29.0269 8.6746 28.2317 7.87943 28.2317 6.9063ZM30.4282 23.2659C30.2558 23.2548 30.0834 23.2381 29.911 23.2381C30.0834 23.2437 30.2558 23.2492 30.4282 23.2659ZM31.7683 53.088C31.7683 54.0611 30.9731 54.8563 30 54.8563C29.0269 54.8563 28.2317 54.0611 28.2317 53.088C28.2317 52.1148 29.0269 51.3197 30 51.3197C30.9731 51.3197 31.7683 52.1148 31.7683 53.088ZM29.9054 36.378C30.0778 36.378 30.2502 36.3669 30.4226 36.3502C30.2558 36.3669 30.0834 36.378 29.9054 36.378ZM29.9054 34.1537C27.5088 34.1537 25.5625 32.2075 25.5625 29.8108C25.5625 27.4142 27.5088 25.4679 29.9054 25.4679C32.3021 25.4679 34.2484 27.4142 34.2484 29.8108C34.2484 32.2075 32.3021 34.1537 29.9054 34.1537ZM35.5496 33.1528C35.5329 33.1806 35.5162 33.2084 35.4995 33.2362C35.5162 33.2084 35.5329 33.1806 35.5496 33.1528ZM51.5255 42.4281C51.0361 43.2733 49.9574 43.5625 49.1066 43.0731C48.2613 42.5838 47.9722 41.4994 48.4615 40.6542C48.7896 40.087 49.3846 39.7701 49.9963 39.7701C50.2965 39.7701 50.6024 39.8479 50.8804 40.0092C51.7257 40.4985 52.0148 41.5828 51.5255 42.4281Z" fill="#D31F2E"/>
</svg>
